<svg xmlns="http://www.w3.org/2000/svg" viewBox="0 6.300000190734863 270.6499938964844 39.45000076293945" data-asc="0.89599609375" width="270.6499938964844" height="39.45000076293945"><defs/><g><g><g transform="translate(0, 0)"><path d="M17.31 25.29Q17.31 25.71 16.99 26.03Q16.80 26.25 16.06 26.93Q15.33 27.61 14.38 28.50Q13.43 29.39 12.51 30.26Q11.60 31.13 11.00 31.73Q10.40 32.32 10.40 32.40Q10.40 32.47 11.01 33.06Q11.62 33.64 12.54 34.51Q13.45 35.38 14.42 36.25Q15.38 37.13 16.11 37.82Q16.85 38.50 17.04 38.72Q17.33 39.04 17.36 39.43Q17.43 40.43 17.43 41.48Q17.43 42.53 17.43 43.55Q17.43 43.87 17.35 44.34Q17.26 44.80 16.82 44.80Q16.55 44.80 16.30 44.67Q16.04 44.53 15.84 44.38Q13.70 42.92 11.61 41.36Q9.52 39.79 7.42 38.28Q5.71 37.01 3.96 35.77Q2.20 34.52 0.54 33.20Q0.37 33.06 0.18 32.86Q0 32.67 0 32.40Q0 32.13 0.18 31.93Q0.37 31.74 0.54 31.59Q2.20 30.27 3.94 29.04Q5.69 27.81 7.40 26.54Q9.47 25 11.54 23.44Q13.60 21.88 15.72 20.41Q15.92 20.26 16.17 20.12Q16.43 19.97 16.70 19.97Q17.16 19.97 17.24 20.45Q17.31 20.92 17.31 21.24L17.31 25.29ZM24.68 45.43Q23.29 45.43 21.78 44.92Q20.26 44.41 19.26 43.38Q18.97 43.09 18.97 42.75Q18.97 42.60 19.13 42.00Q19.29 41.41 19.48 40.77Q19.68 40.14 19.73 39.94Q19.82 39.65 20.00 39.37Q20.17 39.09 20.53 39.09Q21.00 39.09 21.97 39.70Q22.95 40.31 24.22 40.31Q26.44 40.31 26.44 38.16Q26.44 36.77 25.55 36.23Q24.66 35.69 23.63 35.16Q21.58 34.06 20.51 32.47Q19.43 30.88 19.43 28.52Q19.43 25.51 21.20 23.83Q22.97 22.14 25.93 22.14Q26.29 22.14 27.06 22.24Q27.83 22.34 28.66 22.55Q29.49 22.75 30.08 23.11Q30.66 23.46 30.66 23.95Q30.66 24.41 30.47 24.96Q30.27 25.51 30.15 25.98Q30.05 26.29 29.88 26.59Q29.71 26.88 29.30 26.88Q28.78 26.88 28.20 26.61Q27.61 26.34 26.93 26.34Q26.00 26.34 25.29 26.89Q24.58 27.44 24.58 28.44Q24.58 29.59 25.28 30.22Q25.98 30.86 27.00 31.35Q28.03 31.84 29.05 32.54Q30.08 33.25 30.77 34.51Q31.47 35.77 31.47 37.96Q31.47 41.09 29.72 43.26Q27.98 45.43 24.68 45.43ZM43.73 45.26Q40.55 45.26 38.40 43.75Q36.25 42.24 35.17 39.73Q34.08 37.23 34.08 34.30L34.08 33.91Q34.13 30.83 35.36 28.13Q36.60 25.42 38.94 23.74Q41.28 22.07 44.60 22.07Q46.66 22.07 48.43 22.84Q50.20 23.61 51.73 24.93Q51.90 25.10 52.03 25.10Q52.32 25.10 52.31 24.49Q52.29 23.88 52.48 23.27Q52.66 22.66 53.44 22.66L56.88 22.66Q57.89 22.66 57.89 23.66Q57.89 24.71 57.87 25.76Q57.86 26.81 57.86 27.86Q57.86 30.54 57.90 33.25Q57.93 35.96 57.96 38.65Q57.98 39.92 58.02 41.20Q58.06 42.48 58.06 43.77Q58.06 44.80 57.06 44.80L53.22 44.80Q52.56 44.80 52.37 44.37Q52.17 43.95 52.20 43.36Q52.22 42.77 52.20 42.31Q52.20 42.24 52.17 42.07Q52.15 41.89 52.03 41.89Q51.93 41.89 51.84 41.97Q51.76 42.04 51.68 42.09Q49.98 43.53 48.00 44.40Q46.02 45.26 43.73 45.26M46.22 40.06Q47.95 40.06 49.43 39.34Q50.90 38.62 51.73 37.06Q51.78 36.96 51.97 36.56Q52.15 36.16 52.15 36.06Q52.15 35.21 52.14 34.35Q52.12 33.50 52.12 32.67Q52.12 32.28 52.15 31.80Q52.17 31.32 52.12 30.96Q52.10 30.79 51.94 30.44Q51.78 30.10 51.71 29.96Q50.85 28.42 49.29 27.66Q47.73 26.90 46.02 26.90Q44.21 26.90 42.85 27.81Q41.48 28.71 40.71 30.19Q39.94 31.67 39.94 33.42Q39.94 35.18 40.75 36.69Q41.55 38.21 42.98 39.14Q44.41 40.06 46.22 40.06ZM67.16 22.66Q68.07 22.66 68.16 23.54Q68.24 24.02 68.29 24.51Q68.33 25 68.38 25.49Q68.38 25.54 68.43 25.77Q68.48 26.00 68.60 26.00Q68.73 26.00 68.84 25.85Q68.95 25.71 68.99 25.63Q70.46 23.75 72.56 22.92Q74.66 22.09 76.98 22.09Q78.88 22.09 80.48 22.89Q82.08 23.68 83.06 25.13Q84.03 26.59 84.03 28.59Q84.03 32.37 84.12 36.18Q84.20 39.99 84.20 43.77Q84.20 44.80 83.20 44.80L79.37 44.80Q78.44 44.80 78.37 43.80Q78.30 42.75 78.32 41.69Q78.34 40.63 78.32 39.58Q78.30 37.33 78.30 35.11Q78.30 32.89 78.30 30.66Q78.30 28.93 77.29 28.06Q76.29 27.20 74.63 27.20Q72.56 27.20 71.23 28.47Q69.90 29.74 69.25 31.59Q68.60 33.45 68.60 35.23Q68.60 37.38 68.58 39.51Q68.55 41.65 68.53 43.80Q68.53 44.80 67.53 44.80L63.70 44.80Q62.70 44.80 62.70 43.77Q62.70 42.41 62.73 41.05Q62.77 39.70 62.79 38.35Q62.87 32.64 62.87 26.93L62.87 23.66Q62.87 22.66 63.87 22.66L67.16 22.66ZM91.46 22.31Q91.46 20.21 91.43 18.13Q91.41 16.04 91.41 13.96Q91.41 12.96 92.41 12.96L96.24 12.96Q97.24 12.96 97.24 13.96Q97.24 16.04 97.23 18.13Q97.22 20.21 97.22 22.31Q97.22 22.61 97.53 22.61L101.37 22.61Q102.37 22.61 102.37 23.61Q102.37 24.37 102.36 25.13Q102.34 25.90 102.34 26.68Q102.34 27.69 101.34 27.69L97.53 27.69Q97.22 27.69 97.22 27.98Q97.22 31.93 97.24 35.89Q97.27 39.84 97.27 43.80Q97.27 44.80 96.26 44.80L92.38 44.80Q91.38 44.80 91.38 43.80Q91.38 39.84 91.42 35.89Q91.46 31.93 91.46 27.98Q91.46 27.61 90.94 27.62Q90.43 27.64 89.77 27.71Q89.11 27.78 88.60 27.61Q88.09 27.44 88.09 26.68L88.09 23.61Q88.09 22.61 89.09 22.61L91.14 22.61Q91.46 22.61 91.46 22.31ZM105.86 14.33Q105.86 12.99 106.86 12.02Q107.86 11.06 109.20 11.06Q110.57 11.06 111.61 12.05Q112.65 13.04 112.65 14.43Q112.65 15.77 111.66 16.76Q110.67 17.75 109.30 17.75Q107.91 17.75 106.88 16.74Q105.86 15.72 105.86 14.33M106.23 29.05L106.23 23.66Q106.23 22.66 107.23 22.66L110.99 22.66Q111.99 22.66 111.99 23.66Q111.99 28.69 112.01 33.73Q112.04 38.77 112.04 43.80Q112.04 44.80 111.04 44.80L107.18 44.80Q106.18 44.80 106.18 43.80Q106.18 40.11 106.20 36.43Q106.23 32.74 106.23 29.05ZM116.58 44.80Q116.24 44.80 115.84 44.69Q115.45 44.58 115.45 44.12Q115.45 43.92 115.53 43.73Q115.60 43.53 115.67 43.36Q117.82 38.72 119.93 34.08Q122.05 29.44 124.10 24.76Q125.78 20.90 127.44 17.03Q129.10 13.16 130.86 9.35Q130.93 9.20 131.10 9.20Q131.27 9.20 131.35 9.35Q133.11 13.16 134.77 17.03Q136.43 20.90 138.11 24.76Q140.16 29.44 142.27 34.08Q144.38 38.72 146.53 43.36Q146.61 43.53 146.68 43.73Q146.75 43.92 146.75 44.12Q146.75 44.58 146.36 44.69Q145.97 44.80 145.63 44.80L140.70 44.80Q140.09 44.80 139.77 44.19Q139.58 43.80 139.40 43.36Q139.23 42.92 139.06 42.53Q138.53 41.31 138.02 40.04Q137.52 38.77 136.96 37.55Q136.89 37.35 136.69 37.35L124.61 37.35Q124.41 37.35 124.34 37.55Q123.75 38.77 123.23 40.04Q122.71 41.31 122.14 42.55Q121.97 42.94 121.79 43.38Q121.61 43.82 121.39 44.21Q121.07 44.80 120.48 44.80L116.58 44.80M126.64 32.25L134.77 32.25Q133.79 29.81 132.79 27.38Q131.79 24.95 130.79 22.51Q129.76 24.95 128.72 27.38Q127.69 29.81 126.64 32.25ZM154.25 22.66Q155.18 22.66 155.25 23.56L155.49 26.34Q155.49 26.37 155.54 26.70Q155.59 27.03 155.71 27.03Q155.83 27.03 155.97 26.76Q156.10 26.49 156.13 26.44Q157.13 24.56 158.57 23.49Q160.01 22.41 162.21 22.41Q162.72 22.41 163.51 22.50Q164.31 22.58 164.31 23.32Q164.31 23.68 164.16 24.46Q164.01 25.24 163.83 26.04Q163.65 26.83 163.55 27.25Q163.45 27.66 163.24 27.89Q163.04 28.13 162.55 28.13Q162.30 28.13 162.07 28.09Q161.84 28.05 161.57 28.05Q159.64 28.05 158.33 29.26Q157.01 30.47 156.35 32.23Q155.69 33.98 155.69 35.69L155.69 43.80Q155.69 44.80 154.69 44.80L150.90 44.80Q149.90 44.80 149.90 43.77Q149.90 39.99 149.94 36.22Q149.98 32.45 149.98 28.69L149.98 23.66Q149.98 22.66 150.98 22.66L154.25 22.66ZM175.29 45.26Q172.12 45.26 169.97 43.75Q167.82 42.24 166.74 39.73Q165.65 37.23 165.65 34.30L165.65 33.91Q165.70 30.83 166.93 28.13Q168.16 25.42 170.51 23.74Q172.85 22.07 176.17 22.07Q178.22 22.07 179.99 22.84Q181.76 23.61 183.30 24.93Q183.47 25.10 183.59 25.10Q183.89 25.10 183.87 24.49Q183.86 23.88 184.05 23.27Q184.23 22.66 185.01 22.66L188.45 22.66Q189.45 22.66 189.45 23.66Q189.45 24.71 189.44 25.76Q189.43 26.81 189.43 27.86Q189.43 30.54 189.47 33.25Q189.50 35.96 189.53 38.65Q189.55 39.92 189.59 41.20Q189.62 42.48 189.62 43.77Q189.62 44.80 188.62 44.80L184.79 44.80Q184.13 44.80 183.94 44.37Q183.74 43.95 183.76 43.36Q183.79 42.77 183.76 42.31Q183.76 42.24 183.74 42.07Q183.72 41.89 183.59 41.89Q183.50 41.89 183.41 41.97Q183.33 42.04 183.25 42.09Q181.54 43.53 179.57 44.40Q177.59 45.26 175.29 45.26M177.78 40.06Q179.52 40.06 180.99 39.34Q182.47 38.62 183.30 37.06Q183.35 36.96 183.53 36.56Q183.72 36.16 183.72 36.06Q183.72 35.21 183.70 34.35Q183.69 33.50 183.69 32.67Q183.69 32.28 183.72 31.80Q183.74 31.32 183.69 30.96Q183.67 30.79 183.51 30.44Q183.35 30.10 183.28 29.96Q182.42 28.42 180.86 27.66Q179.30 26.90 177.59 26.90Q175.78 26.90 174.41 27.81Q173.05 28.71 172.28 30.19Q171.51 31.67 171.51 33.42Q171.51 35.18 172.31 36.69Q173.12 38.21 174.55 39.14Q175.98 40.06 177.78 40.06ZM193.36 33.84Q193.36 30.44 194.81 27.78Q196.26 25.12 198.88 23.57Q201.49 22.02 204.91 22.02Q208.28 22.02 210.79 23.55Q213.31 25.07 214.71 27.71Q216.11 30.35 216.11 33.64Q216.11 37.04 214.72 39.66Q213.33 42.29 210.80 43.77Q208.28 45.26 204.81 45.26Q201.37 45.26 198.79 43.84Q196.22 42.41 194.79 39.84Q193.36 37.28 193.36 33.84M204.79 26.95Q202.93 26.95 201.68 27.94Q200.44 28.93 199.80 30.47Q199.17 32.01 199.17 33.69Q199.17 35.28 199.84 36.74Q200.51 38.21 201.76 39.14Q203.00 40.06 204.71 40.06Q206.57 40.06 207.80 39.12Q209.03 38.18 209.66 36.69Q210.28 35.21 210.28 33.52Q210.28 31.88 209.66 30.38Q209.03 28.88 207.81 27.92Q206.59 26.95 204.79 26.95ZM227.34 28.15Q227.34 27.95 227.00 27.95L220.48 27.95Q219.48 27.95 219.48 26.95Q219.48 26.12 219.47 25.31Q219.46 24.49 219.46 23.66Q219.46 22.66 220.46 22.66L234.94 22.66Q235.28 22.66 235.68 22.77Q236.08 22.88 236.08 23.34Q236.08 23.54 236.00 23.74Q235.91 23.95 235.82 24.15Q235.62 24.51 234.95 25.74Q234.28 26.98 233.35 28.67Q232.42 30.37 231.42 32.19Q230.42 34.01 229.55 35.61Q228.69 37.21 228.15 38.22Q227.61 39.23 227.61 39.28Q227.61 39.48 227.95 39.48L235.60 39.48Q236.60 39.48 236.60 40.45L236.62 43.77Q236.62 44.80 235.62 44.80L219.87 44.80Q219.56 44.80 219.13 44.69Q218.70 44.58 218.70 44.14Q218.70 43.92 218.80 43.70Q218.90 43.48 218.99 43.31Q219.21 42.92 219.90 41.70Q220.58 40.48 221.52 38.79Q222.46 37.11 223.47 35.29Q224.49 33.47 225.37 31.88Q226.25 30.30 226.79 29.26Q227.34 28.22 227.34 28.15ZM253.05 6.30Q253.44 6.30 253.77 6.45Q254.10 6.59 254.10 7.08Q254.10 7.25 254.00 7.59Q252.15 13.62 250.35 19.65Q248.56 25.68 246.83 31.74Q246.22 33.86 245.61 35.99Q245.00 38.11 244.36 40.21Q244.02 41.41 243.69 42.64Q243.36 43.87 242.94 45.04Q242.68 45.75 241.99 45.75L238.87 45.75Q238.48 45.75 238.15 45.61Q237.82 45.46 237.82 45.00Q237.82 44.80 237.92 44.46Q239.75 38.43 241.52 32.39Q243.29 26.34 245.04 20.31Q245.65 18.19 246.28 16.06Q246.90 13.94 247.51 11.84Q247.85 10.62 248.19 9.40Q248.54 8.18 248.95 7.01Q249.22 6.30 249.90 6.30L253.05 6.30ZM253.17 43.55Q253.17 42.53 253.17 41.48Q253.17 40.43 253.25 39.43Q253.27 38.99 253.56 38.70Q253.78 38.48 254.52 37.79Q255.25 37.11 256.21 36.23Q257.18 35.35 258.09 34.48Q259.01 33.62 259.62 33.02Q260.23 32.42 260.23 32.35Q260.23 32.28 259.62 31.67Q259.01 31.05 258.08 30.18Q257.15 29.30 256.20 28.39Q255.25 27.49 254.53 26.82Q253.81 26.15 253.61 25.98Q253.30 25.68 253.30 25.24L253.30 21.24Q253.30 20.92 253.37 20.45Q253.44 19.97 253.91 19.97Q254.17 19.97 254.43 20.12Q254.69 20.26 254.88 20.41Q257.25 22.07 259.57 23.79Q261.89 25.51 264.21 27.22Q265.67 28.30 267.18 29.36Q268.68 30.42 270.09 31.54Q270.29 31.69 270.47 31.88Q270.65 32.08 270.65 32.35Q270.65 32.62 270.47 32.81Q270.29 33.01 270.09 33.15Q268.31 34.57 266.42 35.90Q264.53 37.23 262.67 38.60Q260.72 40.04 258.75 41.53Q256.79 43.02 254.76 44.38Q254.57 44.53 254.31 44.67Q254.05 44.80 253.78 44.80Q253.34 44.80 253.26 44.34Q253.17 43.87 253.17 43.55Z"/></g><g transform="translate(0, 60.15625)"><path d=""/></g></g></g></svg>